<svg xmlns="http://www.w3.org/2000/svg" xmlns:xlink="http://www.w3.org/1999/xlink" width="500" zoomAndPan="magnify" viewBox="0 0 375 374.999991" height="500" preserveAspectRatio="xMidYMid meet" version="1.0"><defs><g/></defs><g fill="#ffffff" fill-opacity="1"><g transform="translate(186.989772, 247.823422)"><g><path d="M 102.015625 -28.5625 C 102.015625 -17 102.410156 -7.476562 103.203125 0 C 95.492188 -0.34375 82.515625 -0.515625 64.265625 -0.515625 C 37.742188 -0.515625 17.910156 -0.34375 4.765625 0 L 4.765625 -3.40625 C 8.390625 -3.625 11.019531 -4.070312 12.65625 -4.75 C 14.300781 -5.4375 15.40625 -6.742188 15.96875 -8.671875 C 16.539062 -10.597656 16.828125 -13.710938 16.828125 -18.015625 L 16.828125 -102.359375 C 16.828125 -106.660156 16.515625 -109.773438 15.890625 -111.703125 C 15.273438 -113.628906 14.171875 -114.929688 12.578125 -115.609375 C 10.992188 -116.296875 8.390625 -116.753906 4.765625 -116.984375 L 4.765625 -120.375 C 17.910156 -120.039062 37.742188 -119.875 64.265625 -119.875 C 80.929688 -119.875 92.78125 -120.039062 99.8125 -120.375 C 99.019531 -109.726562 98.625 -100.207031 98.625 -91.8125 C 98.625 -86.601562 98.789062 -82.523438 99.125 -79.578125 L 95.21875 -79.578125 C 93.175781 -92.722656 89.378906 -102.15625 83.828125 -107.875 C 78.273438 -113.601562 71.644531 -116.46875 63.9375 -116.46875 L 61.71875 -116.46875 C 58.65625 -116.46875 56.414062 -116.210938 55 -115.703125 C 53.582031 -115.191406 52.617188 -114.226562 52.109375 -112.8125 C 51.597656 -111.394531 51.34375 -109.046875 51.34375 -105.765625 L 51.34375 -62.234375 L 53.046875 -62.234375 C 58.941406 -62.234375 63.984375 -64.554688 68.171875 -69.203125 C 72.367188 -73.847656 75.035156 -79.003906 76.171875 -84.671875 L 80.078125 -84.671875 C 79.742188 -79.910156 79.578125 -74.582031 79.578125 -68.6875 L 79.578125 -60.53125 C 79.578125 -54.75 79.914062 -46.703125 80.59375 -36.390625 L 76.6875 -36.390625 C 75.664062 -42.847656 73.03125 -48.203125 68.78125 -52.453125 C 64.53125 -56.703125 59.285156 -58.828125 53.046875 -58.828125 L 51.34375 -58.828125 L 51.34375 -14.625 C 51.34375 -11.332031 51.597656 -8.976562 52.109375 -7.5625 C 52.617188 -6.144531 53.582031 -5.179688 55 -4.671875 C 56.414062 -4.160156 58.65625 -3.90625 61.71875 -3.90625 L 67.328125 -3.90625 C 73.898438 -3.90625 80.132812 -7.109375 86.03125 -13.515625 C 91.925781 -19.921875 96.125 -30.148438 98.625 -44.203125 L 102.53125 -44.203125 C 102.1875 -40.128906 102.015625 -34.914062 102.015625 -28.5625 Z M 102.015625 -28.5625 "/></g></g></g><g fill="#ffffff" fill-opacity="1"><g transform="translate(97.144831, 247.823348)"><g><path d="M 108.8125 -14.28125 C 110.289062 -10.65625 111.90625 -7.960938 113.65625 -6.203125 C 115.414062 -4.453125 117.148438 -3.519531 118.859375 -3.40625 L 118.859375 0 C 110.691406 -0.34375 100.375 -0.515625 87.90625 -0.515625 C 74.976562 -0.515625 65.457031 -0.34375 59.34375 0 L 59.34375 -3.40625 C 63.644531 -3.625 66.703125 -4.160156 68.515625 -5.015625 C 70.335938 -5.867188 71.25 -7.367188 71.25 -9.515625 C 71.25 -11.554688 70.566406 -14.28125 69.203125 -17.6875 L 59.171875 -45.5625 L 24.828125 -45.5625 L 21.9375 -37.921875 C 18.195312 -28.285156 16.328125 -20.914062 16.328125 -15.8125 C 16.328125 -11.164062 17.628906 -7.988281 20.234375 -6.28125 C 22.835938 -4.582031 26.691406 -3.625 31.796875 -3.40625 L 31.796875 0 C 23.296875 -0.34375 15.867188 -0.515625 9.515625 -0.515625 C 4.191406 -0.515625 -0.171875 -0.34375 -3.578125 0 L -3.578125 -3.40625 C -0.734375 -3.851562 1.929688 -5.609375 4.421875 -8.671875 C 6.910156 -11.734375 9.460938 -16.609375 12.078125 -23.296875 L 49.8125 -120.375 C 53.445312 -120.15625 56.453125 -120.046875 58.828125 -120.046875 C 61.097656 -120.046875 64.046875 -120.15625 67.671875 -120.375 Z M 57.984375 -48.96875 L 42.515625 -91.484375 L 26.1875 -48.96875 Z M 57.984375 -48.96875 "/></g></g></g><path fill="#fdf7f2" d="M 55.746094 174.394531 L 326.796875 174.394531 L 326.796875 199.667969 L 55.746094 199.667969 L 55.746094 174.394531 " fill-opacity="1" fill-rule="nonzero"/><g fill="#5271ff" fill-opacity="1"><g transform="translate(67.337045, 190.780975)"><g><path d="M 1.125 0 L 1.125 -9.34375 L 6.734375 -9.34375 L 6.734375 -8.34375 L 2.265625 -8.34375 L 2.265625 -5.1875 L 6.3125 -5.1875 L 6.3125 -4.171875 L 2.265625 -4.171875 L 2.265625 0 Z M 1.125 0 "/></g></g></g><g fill="#5271ff" fill-opacity="1"><g transform="translate(77.485162, 190.780975)"><g><path d="M 7.265625 -9.34375 L 8.390625 -9.34375 L 8.390625 -3.15625 C 8.390625 -2.457031 8.222656 -1.859375 7.890625 -1.359375 C 7.554688 -0.867188 7.113281 -0.488281 6.5625 -0.21875 C 6.019531 0.0390625 5.421875 0.171875 4.765625 0.171875 C 4.109375 0.171875 3.503906 0.0390625 2.953125 -0.21875 C 2.398438 -0.488281 1.957031 -0.867188 1.625 -1.359375 C 1.289062 -1.859375 1.125 -2.457031 1.125 -3.15625 L 1.125 -9.34375 L 2.265625 -9.34375 L 2.265625 -3.15625 C 2.265625 -2.664062 2.378906 -2.253906 2.609375 -1.921875 C 2.835938 -1.585938 3.140625 -1.332031 3.515625 -1.15625 C 3.898438 -0.976562 4.316406 -0.890625 4.765625 -0.890625 C 5.203125 -0.890625 5.609375 -0.976562 5.984375 -1.15625 C 6.367188 -1.332031 6.675781 -1.585938 6.90625 -1.921875 C 7.144531 -2.253906 7.265625 -2.664062 7.265625 -3.15625 Z M 7.265625 -9.34375 "/></g></g></g><g fill="#5271ff" fill-opacity="1"><g transform="translate(89.620087, 190.780975)"><g><path d="M 1.125 0 L 1.125 -9.34375 L 2.265625 -9.34375 L 2.265625 -1 L 6.609375 -1 L 6.609375 0 Z M 1.125 0 "/></g></g></g><g fill="#5271ff" fill-opacity="1"><g transform="translate(99.458332, 190.780975)"><g><path d="M 1.125 0 L 1.125 -9.34375 L 2.265625 -9.34375 L 2.265625 -1 L 6.609375 -1 L 6.609375 0 Z M 1.125 0 "/></g></g></g><g fill="#5271ff" fill-opacity="1"><g transform="translate(109.296576, 190.780975)"><g/></g></g><g fill="#5271ff" fill-opacity="1"><g transform="translate(115.525767, 190.780975)"><g><path d="M 6.234375 -7 C 6.179688 -7.46875 5.957031 -7.828125 5.5625 -8.078125 C 5.175781 -8.335938 4.703125 -8.46875 4.140625 -8.46875 C 3.515625 -8.46875 3.015625 -8.316406 2.640625 -8.015625 C 2.265625 -7.722656 2.078125 -7.359375 2.078125 -6.921875 C 2.078125 -6.578125 2.179688 -6.300781 2.390625 -6.09375 C 2.597656 -5.894531 2.84375 -5.738281 3.125 -5.625 C 3.40625 -5.507812 3.660156 -5.421875 3.890625 -5.359375 L 4.828125 -5.109375 C 5.078125 -5.046875 5.347656 -4.957031 5.640625 -4.84375 C 5.941406 -4.726562 6.226562 -4.570312 6.5 -4.375 C 6.78125 -4.1875 7.007812 -3.941406 7.1875 -3.640625 C 7.375 -3.335938 7.46875 -2.96875 7.46875 -2.53125 C 7.46875 -2.03125 7.332031 -1.578125 7.0625 -1.171875 C 6.800781 -0.765625 6.414062 -0.4375 5.90625 -0.1875 C 5.40625 0.0507812 4.800781 0.171875 4.09375 0.171875 C 3.082031 0.171875 2.28125 -0.0664062 1.6875 -0.546875 C 1.101562 -1.023438 0.785156 -1.644531 0.734375 -2.40625 L 1.890625 -2.40625 C 1.921875 -2.050781 2.039062 -1.757812 2.25 -1.53125 C 2.457031 -1.300781 2.722656 -1.128906 3.046875 -1.015625 C 3.367188 -0.910156 3.71875 -0.859375 4.09375 -0.859375 C 4.519531 -0.859375 4.90625 -0.925781 5.25 -1.0625 C 5.59375 -1.207031 5.863281 -1.40625 6.0625 -1.65625 C 6.257812 -1.914062 6.359375 -2.210938 6.359375 -2.546875 C 6.359375 -2.859375 6.269531 -3.113281 6.09375 -3.3125 C 5.925781 -3.507812 5.703125 -3.664062 5.421875 -3.78125 C 5.140625 -3.90625 4.832031 -4.015625 4.5 -4.109375 L 3.359375 -4.4375 C 2.628906 -4.644531 2.050781 -4.941406 1.625 -5.328125 C 1.195312 -5.722656 0.984375 -6.234375 0.984375 -6.859375 C 0.984375 -7.378906 1.125 -7.832031 1.40625 -8.21875 C 1.695312 -8.613281 2.082031 -8.921875 2.5625 -9.140625 C 3.039062 -9.359375 3.578125 -9.46875 4.171875 -9.46875 C 4.773438 -9.46875 5.3125 -9.359375 5.78125 -9.140625 C 6.25 -8.929688 6.617188 -8.640625 6.890625 -8.265625 C 7.171875 -7.898438 7.316406 -7.476562 7.328125 -7 Z M 6.234375 -7 "/></g></g></g><g fill="#5271ff" fill-opacity="1"><g transform="translate(126.330076, 190.780975)"><g><path d="M 0.625 -8.34375 L 0.625 -9.34375 L 7.625 -9.34375 L 7.625 -8.34375 L 4.6875 -8.34375 L 4.6875 0 L 3.5625 0 L 3.5625 -8.34375 Z M 0.625 -8.34375 "/></g></g></g><g fill="#5271ff" fill-opacity="1"><g transform="translate(137.189065, 190.780975)"><g><path d="M 1.515625 0 L 0.328125 0 L 3.765625 -9.34375 L 4.921875 -9.34375 L 8.359375 0 L 7.171875 0 L 6.234375 -2.640625 L 2.453125 -2.640625 Z M 2.8125 -3.65625 L 5.875 -3.65625 L 4.375 -7.859375 L 4.3125 -7.859375 Z M 2.8125 -3.65625 "/></g></g></g><g fill="#5271ff" fill-opacity="1"><g transform="translate(148.485516, 190.780975)"><g><path d="M 8.640625 -6.421875 L 7.515625 -6.421875 C 7.421875 -6.847656 7.242188 -7.207031 6.984375 -7.5 C 6.734375 -7.800781 6.425781 -8.023438 6.0625 -8.171875 C 5.695312 -8.328125 5.304688 -8.40625 4.890625 -8.40625 C 4.328125 -8.40625 3.816406 -8.257812 3.359375 -7.96875 C 2.898438 -7.6875 2.535156 -7.269531 2.265625 -6.71875 C 1.992188 -6.164062 1.859375 -5.484375 1.859375 -4.671875 C 1.859375 -3.859375 1.992188 -3.171875 2.265625 -2.609375 C 2.535156 -2.054688 2.898438 -1.640625 3.359375 -1.359375 C 3.816406 -1.078125 4.328125 -0.9375 4.890625 -0.9375 C 5.304688 -0.9375 5.695312 -1.007812 6.0625 -1.15625 C 6.425781 -1.3125 6.734375 -1.535156 6.984375 -1.828125 C 7.242188 -2.117188 7.421875 -2.484375 7.515625 -2.921875 L 8.640625 -2.921875 C 8.523438 -2.285156 8.289062 -1.738281 7.9375 -1.28125 C 7.582031 -0.820312 7.140625 -0.472656 6.609375 -0.234375 C 6.085938 0.00390625 5.515625 0.125 4.890625 0.125 C 4.085938 0.125 3.375 -0.0664062 2.75 -0.453125 C 2.132812 -0.847656 1.648438 -1.398438 1.296875 -2.109375 C 0.941406 -2.828125 0.765625 -3.679688 0.765625 -4.671875 C 0.765625 -5.648438 0.941406 -6.5 1.296875 -7.21875 C 1.648438 -7.9375 2.132812 -8.488281 2.75 -8.875 C 3.375 -9.269531 4.085938 -9.46875 4.890625 -9.46875 C 5.515625 -9.46875 6.085938 -9.347656 6.609375 -9.109375 C 7.140625 -8.867188 7.582031 -8.519531 7.9375 -8.0625 C 8.289062 -7.601562 8.523438 -7.054688 8.640625 -6.421875 Z M 8.640625 -6.421875 "/></g></g></g><g fill="#5271ff" fill-opacity="1"><g transform="translate(160.438159, 190.780975)"><g><path d="M 1.125 0 L 1.125 -9.34375 L 2.265625 -9.34375 L 2.265625 -4.703125 L 2.375 -4.703125 L 6.5625 -9.34375 L 8.046875 -9.34375 L 4.125 -5.125 L 8.046875 0 L 6.671875 0 L 3.4375 -4.34375 L 2.265625 -3.03125 L 2.265625 0 Z M 1.125 0 "/></g></g></g><g fill="#5271ff" fill-opacity="1"><g transform="translate(171.424738, 190.780975)"><g/></g></g><g fill="#5271ff" fill-opacity="1"><g transform="translate(177.653929, 190.780975)"><g><path d="M 2.828125 0 L 0.28125 -9.34375 L 1.421875 -9.34375 L 3.375 -1.734375 L 3.46875 -1.734375 L 5.453125 -9.34375 L 6.734375 -9.34375 L 8.71875 -1.734375 L 8.8125 -1.734375 L 10.765625 -9.34375 L 11.90625 -9.34375 L 9.359375 0 L 8.1875 0 L 6.125 -7.4375 L 6.0625 -7.4375 L 4 0 Z M 2.828125 0 "/></g></g></g><g fill="#5271ff" fill-opacity="1"><g transform="translate(192.450074, 190.780975)"><g><path d="M 1.125 0 L 1.125 -9.34375 L 6.765625 -9.34375 L 6.765625 -8.34375 L 2.265625 -8.34375 L 2.265625 -5.1875 L 6.46875 -5.1875 L 6.46875 -4.171875 L 2.265625 -4.171875 L 2.265625 -1 L 6.84375 -1 L 6.84375 0 Z M 1.125 0 "/></g></g></g><g fill="#5271ff" fill-opacity="1"><g transform="translate(202.744011, 190.780975)"><g><path d="M 1.125 0 L 1.125 -9.34375 L 4.390625 -9.34375 C 5.046875 -9.34375 5.582031 -9.226562 6 -9 C 6.425781 -8.78125 6.742188 -8.484375 6.953125 -8.109375 C 7.160156 -7.734375 7.265625 -7.316406 7.265625 -6.859375 C 7.265625 -6.453125 7.191406 -6.117188 7.046875 -5.859375 C 6.910156 -5.597656 6.722656 -5.390625 6.484375 -5.234375 C 6.253906 -5.085938 6.007812 -4.976562 5.75 -4.90625 L 5.75 -4.8125 C 6.03125 -4.789062 6.316406 -4.6875 6.609375 -4.5 C 6.898438 -4.320312 7.140625 -4.0625 7.328125 -3.71875 C 7.523438 -3.382812 7.625 -2.972656 7.625 -2.484375 C 7.625 -2.015625 7.515625 -1.59375 7.296875 -1.21875 C 7.085938 -0.84375 6.753906 -0.546875 6.296875 -0.328125 C 5.835938 -0.109375 5.238281 0 4.5 0 Z M 2.265625 -1 L 4.5 -1 C 5.238281 -1 5.765625 -1.140625 6.078125 -1.421875 C 6.390625 -1.710938 6.546875 -2.066406 6.546875 -2.484375 C 6.546875 -2.796875 6.460938 -3.085938 6.296875 -3.359375 C 6.140625 -3.628906 5.910156 -3.84375 5.609375 -4 C 5.316406 -4.164062 4.96875 -4.25 4.5625 -4.25 L 2.265625 -4.25 Z M 2.265625 -5.234375 L 4.359375 -5.234375 C 4.867188 -5.234375 5.300781 -5.378906 5.65625 -5.671875 C 6.007812 -5.972656 6.1875 -6.367188 6.1875 -6.859375 C 6.1875 -7.265625 6.039062 -7.613281 5.75 -7.90625 C 5.46875 -8.195312 5.015625 -8.34375 4.390625 -8.34375 L 2.265625 -8.34375 Z M 2.265625 -5.234375 "/></g></g></g><g fill="#5271ff" fill-opacity="1"><g transform="translate(213.712371, 190.780975)"><g/></g></g><g fill="#5271ff" fill-opacity="1"><g transform="translate(219.941562, 190.780975)"><g><path d="M 4.015625 0 L 1.125 0 L 1.125 -9.34375 L 4.140625 -9.34375 C 5.046875 -9.34375 5.820312 -9.15625 6.46875 -8.78125 C 7.113281 -8.40625 7.609375 -7.867188 7.953125 -7.171875 C 8.296875 -6.484375 8.46875 -5.65625 8.46875 -4.6875 C 8.46875 -3.71875 8.289062 -2.878906 7.9375 -2.171875 C 7.59375 -1.472656 7.085938 -0.9375 6.421875 -0.5625 C 5.765625 -0.1875 4.960938 0 4.015625 0 Z M 2.265625 -1 L 3.9375 -1 C 5.09375 -1 5.953125 -1.328125 6.515625 -1.984375 C 7.085938 -2.648438 7.375 -3.550781 7.375 -4.6875 C 7.375 -5.820312 7.09375 -6.710938 6.53125 -7.359375 C 5.976562 -8.015625 5.15625 -8.34375 4.0625 -8.34375 L 2.265625 -8.34375 Z M 2.265625 -1 "/></g></g></g><g fill="#5271ff" fill-opacity="1"><g transform="translate(231.784846, 190.780975)"><g><path d="M 1.125 0 L 1.125 -9.34375 L 6.765625 -9.34375 L 6.765625 -8.34375 L 2.265625 -8.34375 L 2.265625 -5.1875 L 6.46875 -5.1875 L 6.46875 -4.171875 L 2.265625 -4.171875 L 2.265625 -1 L 6.84375 -1 L 6.84375 0 Z M 1.125 0 "/></g></g></g><g fill="#5271ff" fill-opacity="1"><g transform="translate(242.078783, 190.780975)"><g><path d="M 1.515625 -9.34375 L 4.28125 -1.484375 L 4.390625 -1.484375 L 7.171875 -9.34375 L 8.359375 -9.34375 L 4.921875 0 L 3.765625 0 L 0.328125 -9.34375 Z M 1.515625 -9.34375 "/></g></g></g><g fill="#5271ff" fill-opacity="1"><g transform="translate(253.375233, 190.780975)"><g><path d="M 1.125 0 L 1.125 -9.34375 L 6.765625 -9.34375 L 6.765625 -8.34375 L 2.265625 -8.34375 L 2.265625 -5.1875 L 6.46875 -5.1875 L 6.46875 -4.171875 L 2.265625 -4.171875 L 2.265625 -1 L 6.84375 -1 L 6.84375 0 Z M 1.125 0 "/></g></g></g><g fill="#5271ff" fill-opacity="1"><g transform="translate(263.66917, 190.780975)"><g><path d="M 1.125 0 L 1.125 -9.34375 L 2.265625 -9.34375 L 2.265625 -1 L 6.609375 -1 L 6.609375 0 Z M 1.125 0 "/></g></g></g><g fill="#5271ff" fill-opacity="1"><g transform="translate(273.507427, 190.780975)"><g><path d="M 9.015625 -4.671875 C 9.015625 -3.679688 8.832031 -2.828125 8.46875 -2.109375 C 8.113281 -1.398438 7.625 -0.847656 7 -0.453125 C 6.382812 -0.0664062 5.679688 0.125 4.890625 0.125 C 4.085938 0.125 3.375 -0.0664062 2.75 -0.453125 C 2.132812 -0.847656 1.648438 -1.398438 1.296875 -2.109375 C 0.941406 -2.828125 0.765625 -3.679688 0.765625 -4.671875 C 0.765625 -5.648438 0.941406 -6.5 1.296875 -7.21875 C 1.648438 -7.9375 2.132812 -8.488281 2.75 -8.875 C 3.375 -9.269531 4.085938 -9.46875 4.890625 -9.46875 C 5.679688 -9.46875 6.382812 -9.269531 7 -8.875 C 7.625 -8.488281 8.113281 -7.9375 8.46875 -7.21875 C 8.832031 -6.5 9.015625 -5.648438 9.015625 -4.671875 Z M 7.921875 -4.671875 C 7.921875 -5.484375 7.785156 -6.164062 7.515625 -6.71875 C 7.242188 -7.269531 6.878906 -7.6875 6.421875 -7.96875 C 5.960938 -8.257812 5.453125 -8.40625 4.890625 -8.40625 C 4.328125 -8.40625 3.816406 -8.257812 3.359375 -7.96875 C 2.898438 -7.6875 2.535156 -7.269531 2.265625 -6.71875 C 1.992188 -6.164062 1.859375 -5.484375 1.859375 -4.671875 C 1.859375 -3.859375 1.992188 -3.171875 2.265625 -2.609375 C 2.535156 -2.054688 2.898438 -1.640625 3.359375 -1.359375 C 3.816406 -1.078125 4.328125 -0.9375 4.890625 -0.9375 C 5.453125 -0.9375 5.960938 -1.078125 6.421875 -1.359375 C 6.878906 -1.640625 7.242188 -2.054688 7.515625 -2.609375 C 7.785156 -3.171875 7.921875 -3.859375 7.921875 -4.671875 Z M 7.921875 -4.671875 "/></g></g></g><g fill="#5271ff" fill-opacity="1"><g transform="translate(285.897532, 190.780975)"><g><path d="M 1.125 0 L 1.125 -9.34375 L 4.28125 -9.34375 C 5.019531 -9.34375 5.617188 -9.207031 6.078125 -8.9375 C 6.546875 -8.675781 6.894531 -8.320312 7.125 -7.875 C 7.351562 -7.425781 7.46875 -6.929688 7.46875 -6.390625 C 7.46875 -5.835938 7.351562 -5.332031 7.125 -4.875 C 6.90625 -4.425781 6.5625 -4.066406 6.09375 -3.796875 C 5.625 -3.535156 5.03125 -3.40625 4.3125 -3.40625 L 2.265625 -3.40625 L 2.265625 0 Z M 2.265625 -4.421875 L 4.265625 -4.421875 C 5.015625 -4.421875 5.546875 -4.609375 5.859375 -4.984375 C 6.179688 -5.359375 6.34375 -5.828125 6.34375 -6.390625 C 6.34375 -6.953125 6.179688 -7.414062 5.859375 -7.78125 C 5.546875 -8.15625 5.007812 -8.34375 4.25 -8.34375 L 2.265625 -8.34375 Z M 2.265625 -4.421875 "/></g></g></g><g fill="#5271ff" fill-opacity="1"><g transform="translate(296.665369, 190.780975)"><g><path d="M 1.125 0 L 1.125 -9.34375 L 6.765625 -9.34375 L 6.765625 -8.34375 L 2.265625 -8.34375 L 2.265625 -5.1875 L 6.46875 -5.1875 L 6.46875 -4.171875 L 2.265625 -4.171875 L 2.265625 -1 L 6.84375 -1 L 6.84375 0 Z M 1.125 0 "/></g></g></g><g fill="#5271ff" fill-opacity="1"><g transform="translate(306.959306, 190.780975)"><g><path d="M 1.125 0 L 1.125 -9.34375 L 4.28125 -9.34375 C 5.007812 -9.34375 5.609375 -9.21875 6.078125 -8.96875 C 6.546875 -8.71875 6.894531 -8.375 7.125 -7.9375 C 7.351562 -7.507812 7.46875 -7.019531 7.46875 -6.46875 C 7.46875 -5.851562 7.320312 -5.316406 7.03125 -4.859375 C 6.75 -4.398438 6.3125 -4.066406 5.71875 -3.859375 L 7.828125 0 L 6.515625 0 L 4.546875 -3.65625 C 4.460938 -3.65625 4.382812 -3.65625 4.3125 -3.65625 L 2.265625 -3.65625 L 2.265625 0 Z M 2.265625 -4.671875 L 4.265625 -4.671875 C 5.015625 -4.671875 5.546875 -4.832031 5.859375 -5.15625 C 6.179688 -5.476562 6.34375 -5.914062 6.34375 -6.46875 C 6.34375 -7.039062 6.179688 -7.492188 5.859375 -7.828125 C 5.546875 -8.171875 5.007812 -8.34375 4.25 -8.34375 L 2.265625 -8.34375 Z M 2.265625 -4.671875 "/></g></g></g></svg>